<?xml version="1.0" encoding="utf-8"?>
<!-- Generator: Adobe Illustrator 28.1.0, SVG Export Plug-In . SVG Version: 6.00 Build 0)  -->
<svg version="1.1" id="Capa_1" xmlns="http://www.w3.org/2000/svg" xmlns:xlink="http://www.w3.org/1999/xlink" x="0px" y="0px"
	 viewBox="0 0 125.22 97.45" style="enable-background:new 0 0 125.22 97.45;" xml:space="preserve">
<path d="M11.05,62.28c5.34,0,10.7,0,16.21,0c0.3,7.01-1.49,18.09,8.35,18.91c6.13,1.03,12.88-0.36,14.12-7.5
	c0.8-24.46,0.21-48.98,0.51-73.47c22.06,1.16,58.89-7.1,63.6,22.63c2.82,14.39-5.73,30.01-21.17,32.27
	c-8.75,1.43-17.69,0.58-26.53,0.78c-0.52,9.86,0.9,20.25-3.53,29.44c-5.92,11.93-22.06,13.95-33.9,10.76
	C13.29,92.53,9.9,75.76,11.05,62.28z M66.32,39.5c3.87,0.21,7.78,0.08,11.67,0.07c6.16-0.41,13.87,0.7,17.84-5.06
	c1.59-2.39,1.79-5.1,1.58-7.83c-0.59-14.16-21.17-9.73-31.08-10.27C66.32,24.12,66.32,31.77,66.32,39.5z"/>
</svg>
