<?xml version="1.0" encoding="utf-8"?>
<!-- Generator: Adobe Illustrator 28.1.0, SVG Export Plug-In . SVG Version: 6.00 Build 0)  -->
<svg version="1.1" id="Capa_1" xmlns="http://www.w3.org/2000/svg" xmlns:xlink="http://www.w3.org/1999/xlink" x="0px" y="0px"
	 viewBox="0 0 125.22 97.45" style="enable-background:new 0 0 125.22 97.45;" xml:space="preserve">
<style type="text/css">
	.st0{fill:#1F140F;}
</style>
<path d="M21.9,62.28c5.34,0,10.7,0,16.21,0c0.3,7.01-1.49,18.09,8.35,18.91c6.13,1.03,12.88-0.36,14.12-7.5
	c0.8-24.46,0.21-48.98,0.51-73.47c22.06,1.16,58.89-7.1,63.6,22.63c2.82,14.39-5.73,30.01-21.17,32.27
	c-8.75,1.43-17.69,0.58-26.53,0.78c-0.52,9.86,0.9,20.25-3.53,29.44C67.54,97.27,51.4,99.29,39.56,96.1
	C24.14,92.53,20.75,75.76,21.9,62.28z M77.17,39.5c3.87,0.21,7.78,0.08,11.67,0.07c6.16-0.41,13.87,0.7,17.84-5.06
	c1.59-2.39,1.79-5.1,1.58-7.83c-0.59-14.16-21.17-9.73-31.08-10.27C77.17,24.12,77.17,31.77,77.17,39.5z"/>
<path class="st0" d="M28.36,4.87c14.05,0,25.49,11.43,25.49,25.49S42.41,55.84,28.36,55.84S2.87,44.41,2.87,30.36
	S14.3,4.87,28.36,4.87 M28.36,2C12.69,2,0,14.69,0,30.36c0,15.66,12.69,28.36,28.36,28.36s28.36-12.69,28.36-28.36
	C56.71,14.69,44.02,2,28.36,2L28.36,2z"/>
<g>
	<path d="M18.81,43.11V17.6h8.62c3,0,5.34,0.58,7.02,1.75c1.68,1.17,2.52,2.91,2.52,5.24c0,1.18-0.31,2.23-0.94,3.16
		c-0.62,0.93-1.53,1.63-2.72,2.09c1.53,0.33,2.68,1.03,3.44,2.1c0.76,1.07,1.15,2.32,1.15,3.73c0,2.44-0.81,4.29-2.42,5.54
		c-1.61,1.26-3.89,1.88-6.85,1.88H18.81z M23.92,28.29h3.68c1.37,0,2.42-0.28,3.15-0.84c0.74-0.56,1.1-1.38,1.1-2.45
		c0-1.18-0.37-2.05-1.11-2.61c-0.74-0.56-1.85-0.84-3.32-0.84h-3.5V28.29z M23.92,31.83v7.34h4.71c1.35,0,2.39-0.29,3.1-0.88
		c0.71-0.59,1.07-1.46,1.07-2.61c0-1.25-0.3-2.2-0.91-2.86c-0.61-0.66-1.57-0.99-2.87-0.99H23.92z"/>
</g>
</svg>
